<svg width="173" height="44" viewBox="0 0 173 44" fill="none" xmlns="http://www.w3.org/2000/svg">
<mask id="mask0_7_14" style="mask-type:alpha" maskUnits="userSpaceOnUse" x="128" y="0" width="45" height="44">
<rect x="128" width="45" height="44" fill="#D9D9D9"/>
</mask>
<g mask="url(#mask0_7_14)">
<path d="M150.5 38.5C146.844 38.5 143.742 37.2549 141.195 34.7646C138.648 32.2743 137.375 29.2417 137.375 25.6667C137.375 22.7945 138.242 20.2202 139.977 17.9438C141.711 15.6674 143.984 14.132 146.797 13.3375C146.172 13.1848 145.563 12.9632 144.969 12.673C144.375 12.3827 143.844 12.0084 143.375 11.55C142.344 10.5417 141.68 9.3424 141.383 7.95212C141.086 6.56184 141.016 5.14865 141.172 3.71254C142.641 3.55976 144.086 3.62851 145.508 3.91879C146.93 4.20907 148.156 4.85837 149.188 5.8667C149.906 6.56948 150.43 7.36393 150.758 8.25004C151.086 9.13615 151.297 10.0681 151.391 11.0459C151.797 10.0986 152.289 9.2049 152.867 8.36462C153.445 7.52434 154.094 6.75282 154.813 6.05004C155.156 5.71393 155.594 5.54587 156.125 5.54587C156.656 5.54587 157.094 5.71393 157.438 6.05004C157.781 6.38615 157.953 6.81393 157.953 7.33337C157.953 7.85282 157.781 8.28059 157.438 8.6167C156.75 9.28893 156.141 10.0299 155.609 10.8396C155.078 11.6493 154.688 12.5125 154.438 13.4292C157.188 14.2848 159.406 15.8355 161.094 18.0813C162.781 20.3271 163.625 22.8556 163.625 25.6667C163.625 29.2417 162.352 32.2743 159.805 34.7646C157.258 37.2549 154.156 38.5 150.5 38.5ZM150.5 34.8334C153.094 34.8334 155.305 33.9396 157.133 32.1521C158.961 30.3646 159.875 28.2028 159.875 25.6667C159.875 23.1306 158.961 20.9688 157.133 19.1813C155.305 17.3938 153.094 16.5 150.5 16.5C147.906 16.5 145.695 17.3938 143.867 19.1813C142.039 20.9688 141.125 23.1306 141.125 25.6667C141.125 28.2028 142.039 30.3646 143.867 32.1521C145.695 33.9396 147.906 34.8334 150.5 34.8334Z" fill="#E75D5D"/>
</g>
<path d="M21.0958 6.12C26.0158 6.12 29.1758 11.2 29.1758 19.56C29.1758 27.96 26.0158 33.04 21.0958 33.04C16.2158 33.04 13.0958 27.96 13.0958 19.56C13.0958 11.2 16.2158 6.12 21.0958 6.12ZM21.0958 11.12C19.0958 11.12 17.9358 13.92 17.9358 19.56C17.9358 25.24 19.0958 28 21.0958 28C23.1358 28 24.2958 25.24 24.2958 19.56C24.2958 13.92 23.1358 11.12 21.0958 11.12ZM39.5358 3.52H44.6158V40.56H39.5358V3.52ZM35.0958 17.64H41.2158V21.92H35.0958V17.64ZM31.4158 4.08H36.4158V38.88H31.4158V4.08ZM51.9927 4.52H79.5927V8.48H51.9927V4.52ZM52.2727 13.2H79.3127V17.16H52.2727V13.2ZM56.7127 6.08H62.0327V15.76H56.7127V6.08ZM69.5527 6.08H74.8727V15.76H69.5527V6.08ZM49.0727 19.08H82.5527V23.24H49.0727V19.08ZM52.9127 25.28H78.5127V34.48H58.1927V37.92H52.9527V30.92H73.2727V29.08H52.9127V25.28ZM52.9527 36.44H79.4727V40.32H52.9527V36.44Z" fill="#E75D5D"/>
<path d="M94.8873 5.96H114.647V10.2H94.8873V5.96ZM94.4873 24L93.9273 19.68C100.167 19.68 108.767 19.6 115.927 18.68L116.287 22.56C109.007 23.84 100.607 24 94.4873 24ZM97.8073 9.2H102.927V21.48H97.8073V9.2ZM106.647 9.2H111.727V21.48H106.647V9.2ZM99.2073 26.52H123.287V40.16H99.2073V26.52ZM118.087 30.68H104.447V35.96H118.087V30.68ZM117.967 3.52H123.287V24.96H117.967V3.52ZM121.807 11.84H128.207V16.2H121.807V11.84Z" fill="#03C75A"/>
</svg>
